HIERARCHY
ROOT Hips
{
  OFFSET 2.26061 22.2878 23.7974
  CHANNELS 6 Xposition Yposition Zposition Zrotation Xrotation Yrotation
  JOINT LeftUpLeg
  {
    OFFSET 8.64259 1.95398 -2.38835
    CHANNELS 3 Zrotation Xrotation Yrotation
    JOINT LeftLeg
    {
      OFFSET 43.7702 0 0
      CHANNELS 3 Zrotation Xrotation Yrotation
      JOINT LeftFoot
      {
        OFFSET 40.6238 0 0
        CHANNELS 3 Zrotation Xrotation Yrotation
        JOINT LeftToeBase
        {
          OFFSET 12.7242 0 0
          CHANNELS 3 Zrotation Xrotation Yrotation
          End Site
          {
            OFFSET 0 0 0
          }
        }
      }
    }
  }
  JOINT RightUpLeg
  {
    OFFSET -8.2249 1.95398 -2.59336
    CHANNELS 3 Zrotation Xrotation Yrotation
    JOINT RightLeg
    {
      OFFSET 43.5653 0 0
      CHANNELS 3 Zrotation Xrotation Yrotation
      JOINT RightFoot
      {
        OFFSET 40.6238 0 0
        CHANNELS 3 Zrotation Xrotation Yrotation
        JOINT RightToeBase
        {
          OFFSET 12.7242 0 0
          CHANNELS 3 Zrotation Xrotation Yrotation
          End Site
          {
            OFFSET 0 0 0
          }
        }
      }
    }
  }
  JOINT Spine
  {
    OFFSET 0.165834 0.87714 6.61349
    CHANNELS 3 Zrotation Xrotation Yrotation
    JOINT Spine1
    {
      OFFSET 7.38963 1.71661e-005 0
      CHANNELS 3 Zrotation Xrotation Yrotation
      JOINT Spine2
      {
        OFFSET 11.9445 1.14441e-005 0
        CHANNELS 3 Zrotation Xrotation Yrotation
        JOINT Spine3
        {
          OFFSET 14.7254 4.19617e-005 0
          CHANNELS 3 Zrotation Xrotation Yrotation
          JOINT Spine4
          {
            OFFSET 10.9679 0 0
            CHANNELS 3 Zrotation Xrotation Yrotation
            JOINT RightShoulder
            {
              OFFSET 2.46616 -1.6653 3.69651
              CHANNELS 3 Zrotation Xrotation Yrotation
              JOINT RightArm
              {
                OFFSET 13.0012 0 0
                CHANNELS 3 Zrotation Xrotation Yrotation
                JOINT RightForeArm
                {
                  OFFSET 28.7848 1.52588e-005 0
                  CHANNELS 3 Zrotation Xrotation Yrotation
                  JOINT RightHand
                  {
                    OFFSET 26.5688 1.52588e-005 0
                    CHANNELS 3 Zrotation Xrotation Yrotation
                    End Site
                    {
                      OFFSET 0 0 0
                    }
                  }
                }
              }
            }
            JOINT LeftShoulder
            {
              OFFSET 2.38034 -1.29275 -3.7523
              CHANNELS 3 Zrotation Xrotation Yrotation
              JOINT LeftArm
              {
                OFFSET 16.3182 6.10351e-005 0
                CHANNELS 3 Zrotation Xrotation Yrotation
                JOINT LeftForeArm
                {
                  OFFSET 27.0901 0 0
                  CHANNELS 3 Zrotation Xrotation Yrotation
                  JOINT LeftHand
                  {
                    OFFSET 24.5451 1.52588e-005 0
                    CHANNELS 3 Zrotation Xrotation Yrotation
                    End Site
                    {
                      OFFSET 0 0 0
                    }
                  }
                }
              }
            }
            JOINT Neck
            {
              OFFSET 5.0226 -0.0266342 0
              CHANNELS 3 Zrotation Xrotation Yrotation
              JOINT Head
              {
                OFFSET 6.69363 2.86102e-005 0
                CHANNELS 3 Zrotation Xrotation Yrotation
                End Site
                {
                  OFFSET 0 0 0
                }
              }
            }
          }
        }
      }
    }
  }
}
MOTION
Frames:	7
Frame Time:	0.0416667
-84.3224 94.8157 -105.62 90.0604 -36.7575 85.9623 -173.827 0.289143 83.928 -24.9503 20.3044 -1.29445 69.1956 9.05096 6.70526 38.3465 7.54305 1.13067 175.468 21.9935 88.862 -3.14769 -2.0032 -1.83928 62.4135 -1.85139 -1.02 48.2045 0.0914835 -8.39222 -0.742947 7.36323 -89.6633 12.1524 -1.31744 0.817961 0.481804 -1.28018 0.875148 -22.0581 -1.50236 0.384135 -2.04541 -1.50236 0.384134 95.1527 -55.9547 -92.116 23.7382 -5.45429 18.0605 -8.67689 -29.0796 -38.4201 0.495024 -0.52501 4.48651 -98.7525 -47.6396 64.9677 -13.1425 8.11482 -1.02239 8.87168 3.92164 -56.2601 12.4614 0.62644 1.13372 -11.4243 -4.24315 1.97758 16.9058 -4.37576 -0.635873 
-77.9027 93.2427 -99.8533 90.5994 -35.5993 85.8871 -174.113 -2.9798 84.7419 -30.0437 22.3603 -0.0640528 68.3022 8.18458 4.94767 45.1159 13.3754 4.49914 175.408 23.5399 89.0075 -4.19347 -0.913577 -1.50462 65.504 -2.72073 -1.52606 50.4045 0.269565 -6.5365 -0.908365 7.3759 -89.6307 12.1275 -1.63093 0.917754 0.45719 -1.58896 0.988646 -22.0854 -1.83131 0.385037 -2.07274 -1.83131 0.385034 95.1697 -56.0458 -92.0805 24.062 -4.6641 20.5098 -8.79744 -30.0814 -36.4817 -0.0264899 -0.567385 4.26017 -98.5659 -47.5641 65.2188 -12.0027 6.2919 -1.95578 8.88328 2.06153 -61.3345 12.3841 0.494927 0.149943 -10.839 -4.18068 2.21159 16.5215 -4.36223 -0.848145 
-70.9919 92.1559 -93.7627 92.6329 -34.3145 89.9237 -173.782 -4.19161 88.9756 -40.0158 25.749 2.15785 62.7351 4.2551 4.03338 51.058 18.6909 6.1166 175.618 26.6581 90.7922 -19.6844 -3.26266 -0.993323 54.6203 1.36914 1.23701 40.4171 0.392879 -5.04765 -1.01514 7.46453 -90.0427 11.9478 -2.03852 0.135117 0.278422 -2.0306 0.224741 -22.2691 -1.98485 -0.484032 -2.25644 -1.98485 -0.484042 95.1672 -55.9603 -92.0944 23.3906 -3.96054 21.6422 -9.32201 -30.3055 -35.9358 0.169938 -0.567033 4.37948 -99.8344 -49.8589 64.1934 -11.207 7.69303 -0.908606 10.176 2.82691 -62.1235 14.2289 0.581439 0.233509 -11.1699 -4.30184 3.87344 15.9985 -4.65616 -1.71757 
-64.5399 91.4312 -88.783 95.2491 -36.7632 95.9641 -172.455 0.444892 95.1488 -55.4907 23.6774 2.30198 48.029 -7.20621 -2.78081 47.0659 16.117 11.12 176.79 27.0494 95.9765 -34.3371 -2.05442 -0.542057 62.5024 -1.3333 -0.694908 22.8792 -0.251264 0.059436 -0.683953 7.67537 -90.5965 11.5132 -1.6393 -1.01856 -0.157091 -1.68254 -0.945423 -22.6943 -1.25742 -1.46415 -2.68162 -1.25745 -1.46416 93.991 -55.4767 -93.8576 22.5614 -3.84288 19.4027 -8.83486 -29.9332 -35.7766 -0.697614 -0.602213 4.29329 -100.103 -51.4947 64.4019 -14.0451 8.65714 0.152874 6.20571 1.99734 -56.2282 12.0245 0.55505 0.743015 -12.1248 -4.47138 5.06694 15.9826 -4.88852 -2.1669 
-59.6545 92.2228 -83.9296 95.5329 -36.3207 95.4796 -174.104 11.3145 93.6595 -66.2255 13.7404 2.43685 45.7887 -7.63683 -1.36531 39.2595 8.93285 13.3746 176.467 23.8536 96.1442 -38.0756 -2.30867 -0.746353 68.3852 -3.21919 -1.69118 24.1491 0.114122 -3.30632 -0.610568 7.77735 -90.4317 11.3148 -1.41608 -0.718594 -0.355546 -1.44634 -0.655564 -22.8935 -1.13465 -1.11098 -2.88081 -1.13467 -1.11099 94.3765 -55.4615 -93.301 23.2012 -4.492 14.3243 -8.90671 -27.2875 -39.0388 -5.79937 -0.816744 4.16295 -101.038 -51.6463 63.1299 -16.1445 11.633 0.908841 6.65665 6.29277 -47.8438 13.3847 0.811444 2.08888 -12.7993 -5.40772 4.03896 16.8879 -5.96686 -3.03784 
-54.9352 93.8801 -79.5928 95.3521 -37.8245 94.3738 -173.91 18.4419 92.5442 -63.3539 7.34008 1.8681 51.3053 -3.5925 0.950445 40.7318 10.1274 10.4772 177.198 18.5862 96.0296 -35.8272 -2.56644 -1.84617 70.2579 -4.13082 -2.12906 25.8732 0.200793 -3.84183 -0.288275 7.8002 -90.2141 11.2726 -0.673327 -0.359298 -0.398236 -0.688451 -0.32933 -22.9339 -0.534205 -0.54505 -2.92126 -0.534203 -0.545052 94.1643 -54.2914 -93.7747 24.2688 -6.47953 10.3634 -8.09596 -21.8255 -46.1239 -11.3674 -1.04491 3.7392 -101.143 -51.7918 63.0343 -19.2868 13.5248 2.94114 5.05143 9.22501 -39.6056 11.5181 0.849819 3.37834 -13.7358 -6.46626 3.21973 17.349 -7.16519 -3.86936 
-50.4181 94.879 -75.5925 94.8095 -39.5369 93.3235 -172.297 22.3137 91.6477 -50.5912 0.515274 0.51016 58.9946 1.4722 1.08758 41.5343 11.0308 12.0935 178.15 14.16 96.0377 -34.0297 -3.1442 -3.07066 71.7758 -5.00419 -2.52891 28.2442 0.290846 -4.59838 0.0398774 7.7643 -89.9897 11.3453 0.0840712 0.0120164 -0.325673 0.084515 0.00830052 -22.8608 0.0765646 0.0367261 -2.84819 0.0765736 0.0367247 93.9226 -53.1226 -94.3027 24.2867 -8.76182 6.47148 -7.95264 -16.7646 -53.719 -13.2353 -0.825965 1.26656 -100.424 -50.8355 63.7036 -24.2857 13.8551 8.45754 4.74462 10.8526 -36.0692 10.5137 0.905157 4.42981 -14.5197 -7.41159 1.67604 18.1951 -8.12241 -3.80203 
